<?xml version="1.0" standalone="no"?>
<!DOCTYPE svg PUBLIC "-//W3C//DTD SVG 20010904//EN"
 "http://www.w3.org/TR/2001/REC-SVG-20010904/DTD/svg10.dtd">
<svg version="1.0" xmlns="http://www.w3.org/2000/svg"
 width="300.000000pt" height="85.000000pt" viewBox="0 0 300.000000 85.000000"
 preserveAspectRatio="xMidYMid meet">
<metadata>
Created by potrace 1.10, written by Peter Selinger 2001-2011
</metadata>
<g transform="translate(0.000000,85.000000) scale(0.050000,-0.050000)"
fill="#000000" stroke="none">
<path d="M945 1680 l-415 -10 -125 -68 c-621 -337 -473 -1255 223 -1383 232
-43 1183 -15 1317 38 486 194 625 817 267 1199 -205 219 -357 246 -1267 224z
m406 -229 c60 -25 78 -25 138 0 277 116 614 -59 703 -364 120 -412 -322 -811
-712 -644 -61 27 -79 27 -140 1 -50 -20 -115 -26 -228 -18 -87 6 -204 1 -260
-11 -273 -57 -593 184 -616 465 l-6 70 112 6 113 6 22 -89 c21 -82 132 -213
182 -213 10 0 32 -6 50 -12 27 -11 26 -2 -8 55 -233 396 226 925 650 748z
m-903 -235 c31 -87 -11 -156 -95 -156 -106 0 -159 110 -92 191 44 53 164 30
187 -35z"/>
<path d="M1050 1232 c-244 -109 -251 -447 -11 -550 125 -53 191 -56 170 -7
-51 122 -67 187 -67 275 0 88 16 153 67 275 19 44 -67 48 -159 7z"/>
<path d="M1575 1232 c-317 -114 -239 -578 97 -581 306 -3 420 402 156 552 -87
49 -169 59 -253 29z"/>
<path d="M4940 1056 l0 -636 100 0 c93 0 100 3 100 50 0 61 -2 61 104 5 420
-220 904 275 687 702 -145 288 -412 363 -756 214 -32 -14 -35 0 -35 137 0 144
-2 152 -45 154 -25 1 -70 3 -100 5 l-55 4 0 -635z m714 148 c241 -172 113
-567 -184 -567 -322 0 -437 413 -164 585 85 54 260 45 348 -18z"/>
<path d="M4210 1467 c-628 -153 -560 -1037 79 -1036 200 1 471 169 471 293 0
37 -221 16 -279 -26 -145 -107 -358 -71 -456 78 l-30 44 400 0 401 0 12 68
c58 308 -297 652 -598 579z m245 -247 c68 -41 150 -155 133 -184 -6 -9 -140
-16 -298 -16 -315 0 -326 4 -269 97 84 139 294 189 434 103z"/>
<path d="M2560 1053 c0 -449 7 -478 146 -580 72 -54 244 -57 323 -6 53 35 58
35 156 -7 117 -51 200 -45 306 21 133 82 149 146 149 588 l0 391 -100 0 -100
0 0 -366 c0 -408 -12 -454 -120 -454 -113 0 -120 25 -120 441 l0 379 -100 0
-100 0 0 -366 c0 -417 -11 -454 -130 -454 -102 0 -110 32 -110 449 l0 371
-100 0 -100 0 0 -407z"/>
<path d="M2631 202 c-31 -50 -67 -182 -50 -182 10 0 19 9 19 20 0 11 27 20 60
20 33 0 60 -9 60 -20 0 -11 9 -20 20 -20 24 0 -47 186 -75 195 -12 4 -27 -2
-34 -13z m58 -77 c11 -37 6 -45 -28 -45 -44 0 -47 6 -28 76 14 51 35 39 56
-31z"/>
<path d="M3224 196 c-13 -13 -24 -47 -24 -76 0 -96 118 -139 189 -69 46 47 38
69 -24 67 -36 -2 -42 -6 -19 -12 55 -14 28 -56 -35 -56 -70 0 -111 54 -79 105
27 43 101 56 139 24 17 -14 29 -16 29 -4 0 46 -136 61 -176 21z"/>
<path d="M3880 120 l0 -100 75 2 c73 3 73 3 15 16 -77 16 -81 72 -5 71 30 0
55 7 55 15 0 9 -27 16 -60 16 -84 0 -80 55 5 66 64 7 64 8 -10 11 l-75 3 0
-100z"/>
<path d="M4486 120 c5 -122 34 -134 34 -15 l1 85 44 -78 c68 -119 96 -115 92
11 l-3 107 -12 -90 -13 -90 -45 85 c-63 119 -104 113 -98 -15z"/>
<path d="M5164 196 c-63 -63 -14 -176 76 -176 52 0 100 32 100 67 0 11 -17 4
-39 -16 -45 -41 -98 -35 -129 14 -49 79 83 156 139 82 15 -21 28 -28 28 -16 1
37 -45 69 -99 69 -29 0 -63 -11 -76 -24z"/>
<path d="M5819 162 c22 -32 42 -79 43 -105 1 -46 2 -46 17 5 9 28 31 75 51
105 19 29 25 53 14 53 -12 0 -27 -18 -34 -40 -7 -22 -21 -40 -31 -40 -10 0
-27 18 -39 40 -12 22 -31 40 -42 40 -11 0 -2 -26 21 -58z"/>
</g>
</svg>
